<?xml version="1.0" encoding="UTF-8"?>
<svg xmlns="http://www.w3.org/2000/svg" width="680" height="390" viewBox="0 0 680 390" font-family="Helvetica, Arial, sans-serif">
  <defs>
    <marker id="a2" markerWidth="9" markerHeight="9" refX="7" refY="3" orient="auto" markerUnits="strokeWidth">
      <path d="M0,0 L7,3 L0,6 Z" fill="#718096"/>
    </marker>
    <marker id="a2b" markerWidth="9" markerHeight="9" refX="7" refY="3" orient="auto" markerUnits="strokeWidth">
      <path d="M0,0 L7,3 L0,6 Z" fill="#a0aec0"/>
    </marker>
  </defs>

  <!-- title -->
  <text x="340" y="34" font-size="15" fill="#2d3748" text-anchor="middle">
    t (level L = l0+2) = a fixed linear combination of level-l0 cells
  </text>
  <text x="340" y="54" font-size="12.5" fill="#718096" text-anchor="middle">
    the one-level wavelet composed delta_l = 2 times
  </text>

  <!-- prediction cone -->
  <polygon points="328,82 100,300 484,300" fill="#2b6cb0" fill-opacity="0.08" stroke="none"/>

  <!-- ===== level L (fine, on top) : cells of width 24, t highlighted ===== -->
  <text x="40" y="104" font-size="14" fill="#4a5568" font-style="italic">L</text>
  <g fill="#eef5fb" stroke="#2b6cb0" stroke-width="1.3">
    <rect x="268" y="82" width="24" height="34"/>
    <rect x="292" y="82" width="24" height="34"/>
    <rect x="340" y="82" width="24" height="34"/>
    <rect x="364" y="82" width="24" height="34"/>
    <rect x="388" y="82" width="24" height="34"/>
  </g>
  <rect x="316" y="82" width="24" height="34" fill="#cfe0f2" stroke="#2b6cb0" stroke-width="2.2"/>
  <text x="328" y="105" font-size="12" fill="#1a365d" text-anchor="middle">t</text>

  <!-- ===== level l0+1 (middle) : cells of width 48, cone cells highlighted ===== -->
  <text x="30" y="218" font-size="14" fill="#4a5568" font-style="italic">l0+1</text>
  <g fill="#f4f8fc" stroke="#90aecd" stroke-width="1.1">
    <rect x="100" y="190" width="48" height="46"/>
    <rect x="148" y="190" width="48" height="46"/>
    <rect x="196" y="190" width="48" height="46"/>
    <rect x="388" y="190" width="48" height="46"/>
    <rect x="436" y="190" width="48" height="46"/>
    <rect x="484" y="190" width="48" height="46"/>
    <rect x="532" y="190" width="48" height="46"/>
  </g>
  <g fill="#eef5fb" stroke="#2b6cb0" stroke-width="1.7">
    <rect x="244" y="190" width="48" height="46"/>
    <rect x="292" y="190" width="48" height="46"/>
    <rect x="340" y="190" width="48" height="46"/>
  </g>

  <!-- ===== level l0 (coarse, on bottom) : cells of width 96 ===== -->
  <text x="30" y="328" font-size="14" fill="#4a5568" font-style="italic">l0</text>
  <g fill="#dbe9f6" stroke="#2b6cb0" stroke-width="1.7">
    <rect x="100" y="300" width="96" height="52"/>
    <rect x="196" y="300" width="96" height="52"/>
    <rect x="292" y="300" width="96" height="52"/>
    <rect x="388" y="300" width="96" height="52"/>
    <rect x="484" y="300" width="96" height="52"/>
  </g>
  <text x="532" y="331" font-size="13" fill="#1a365d" text-anchor="middle">f(l0)</text>

  <!-- step 1 : t depends on its three level-(l0+1) parents -->
  <line x1="324" y1="116" x2="270" y2="188" stroke="#718096" stroke-width="1.4" marker-end="url(#a2)"/>
  <line x1="328" y1="116" x2="316" y2="188" stroke="#718096" stroke-width="1.4" marker-end="url(#a2)"/>
  <line x1="332" y1="116" x2="362" y2="188" stroke="#718096" stroke-width="1.4" marker-end="url(#a2)"/>

  <!-- step 2 : each of those recurses to level l0 (shown for the central cell) -->
  <line x1="312" y1="236" x2="248" y2="298" stroke="#a0aec0" stroke-width="1.2" stroke-dasharray="4 3" marker-end="url(#a2b)"/>
  <line x1="316" y1="236" x2="340" y2="298" stroke="#a0aec0" stroke-width="1.2" stroke-dasharray="4 3" marker-end="url(#a2b)"/>
  <line x1="320" y1="236" x2="432" y2="298" stroke="#a0aec0" stroke-width="1.2" stroke-dasharray="4 3" marker-end="url(#a2b)"/>
</svg>
