<svg xmlns="http://www.w3.org/2000/svg" width="350" height="118" viewBox="0 0 350 118">
<rect width="350" height="118" fill="#ffffff"/>
<text x="30.25" y="52" font-family="DejaVu Sans Mono, Liberation Mono, Courier New, monospace" font-size="34" fill="#222222" text-anchor="middle">[</text>
<text x="71.5" y="52" font-family="DejaVu Sans Mono, Liberation Mono, Courier New, monospace" font-size="34" fill="#222222" text-anchor="middle">-5</text>
<path d="M 49.0 66 q 0 7 7 7 L 66.5 73 q 5 0 5 7 q 0 -7 5 -7 L 87.0 73 q 7 0 7 -7" fill="none" stroke="#222222" stroke-width="2.5"/>
<text x="71.5" y="106" font-family="DejaVu Sans, Liberation Sans, Arial, Helvetica, sans-serif" font-size="18" fill="#222222" text-anchor="middle">start</text>
<text x="112.75" y="52" font-family="DejaVu Sans Mono, Liberation Mono, Courier New, monospace" font-size="34" fill="#222222" text-anchor="middle">,</text>
<text x="154.0" y="52" font-family="DejaVu Sans Mono, Liberation Mono, Courier New, monospace" font-size="34" fill="#222222" text-anchor="middle">10</text>
<path d="M 131.5 66 q 0 7 7 7 L 149.0 73 q 5 0 5 7 q 0 -7 5 -7 L 169.5 73 q 7 0 7 -7" fill="none" stroke="#222222" stroke-width="2.5"/>
<text x="154.0" y="106" font-family="DejaVu Sans, Liberation Sans, Arial, Helvetica, sans-serif" font-size="18" fill="#222222" text-anchor="middle">end</text>
<text x="195.25" y="52" font-family="DejaVu Sans Mono, Liberation Mono, Courier New, monospace" font-size="34" fill="#222222" text-anchor="middle">)</text>
<text x="236.5" y="52" font-family="DejaVu Sans Mono, Liberation Mono, Courier New, monospace" font-size="34" fill="#d9534f" text-anchor="middle">@0</text>
<path d="M 214.0 66 q 0 7 7 7 L 231.5 73 q 5 0 5 7 q 0 -7 5 -7 L 252.0 73 q 7 0 7 -7" fill="none" stroke="#d9534f" stroke-width="2.5"/>
<text x="236.5" y="106" font-family="DejaVu Sans, Liberation Sans, Arial, Helvetica, sans-serif" font-size="18" fill="#d9534f" text-anchor="middle">index</text>
<text x="298.5" y="52" font-family="DejaVu Sans Mono, Liberation Mono, Courier New, monospace" font-size="34" fill="#5cab3c" text-anchor="middle">:1</text>
<path d="M 276.0 66 q 0 7 7 7 L 293.5 73 q 5 0 5 7 q 0 -7 5 -7 L 314.0 73 q 7 0 7 -7" fill="none" stroke="#5cab3c" stroke-width="2.5"/>
<text x="298.5" y="106" font-family="DejaVu Sans, Liberation Sans, Arial, Helvetica, sans-serif" font-size="18" fill="#5cab3c" text-anchor="middle">step</text>
</svg>
